<?xml version="1.0" encoding="utf-8"?>
<!-- Generator: Adobe Illustrator 19.2.0, SVG Export Plug-In . SVG Version: 6.00 Build 0)  -->
<svg version="1.1" id="Layer_1" xmlns="http://www.w3.org/2000/svg" xmlns:xlink="http://www.w3.org/1999/xlink" x="0px" y="0px"
	 viewBox="0 0 512 512" style="enable-background:new 0 0 512 512;" xml:space="preserve">
<style type="text/css">
	.st0{fill:#0071BB;}
</style>
<g>
	<g>
		<path class="st0" d="M408.3,56.5L408.3,56.5c-4.6,0-8.2,3.7-8.2,8.2s3.7,8.2,8.2,8.2s8.2-3.7,8.2-8.2S412.8,56.5,408.3,56.5z"/>
	</g>
</g>
<g>
	<g>
		<path class="st0" d="M290.9,389.6l-77.6-32.3c-3.5-1.4-5.7-4.8-5.7-8.5v-16.5l14.5-8.1c12.4-6.9,20.6-19.5,21.9-33.6l0-0.4h7.6
			c14.1,0,25.5-11.5,25.5-25.5V249c2.3-5.5,8.7-23.2,8.7-47.6c0-33.7-13.2-65.5-37.2-89.5c-9.2-9.2-19.5-16.8-30.8-22.8
			c-0.4-27.6-28-50-61.9-50S94.4,61.5,94,89.1c-11.3,6-21.6,13.6-30.8,22.8c-24,24-37.2,55.8-37.2,89.5c0,24.4,6.4,42.1,8.7,47.6
			v15.7c0,14.1,11.5,25.5,25.5,25.5h7.6l0,0.4c1.3,14.2,9.5,26.7,21.9,33.6l14.5,8.1v16.5c0,3.7-2.2,7.1-5.7,8.5l-77.6,32.3
			C8.3,395,0,407.4,0,421.2v52.2C0,487.5,11.5,499,25.5,499h260.9c14.1,0,25.5-11.5,25.5-25.5v-52.2
			C312,407.4,303.7,395,290.9,389.6z M260.9,264.7c0,5.1-4.1,9.2-9.2,9.2h-6.1l3.3-35.9h2.8c5.1,0,9.2,4.1,9.2,9.2V264.7z M156,55.4
			c21.4,0,39.3,11.1,44.3,25.9c-14-4.9-28.9-7.5-44.3-7.5s-30.3,2.6-44.3,7.5C116.7,66.5,134.6,55.4,156,55.4z M60.3,273.9
			c-5.1,0-9.2-4.1-9.2-9.2v-17.4c0-5.1,4.1-9.2,9.2-9.2h2.8l3.3,35.9H60.3z M97.8,310c-7.7-4.3-12.8-12.1-13.6-20.9L78,220.8
			c10.7-0.1,29.4-1,51.2-5.5c44.7-9.3,81.2-29.5,105.5-58.5c2.9-3.4,2.4-8.6-1-11.5c-3.4-2.9-8.6-2.4-11.5,1
			c-53,63.2-151.3,58.1-152.7,58v0c-0.4,0-0.8,0-1.3,0c-4.5,0.4-7.8,4.4-7.4,8.9l0.8,8.5h-1.3c-5.7,0-11,1.9-15.2,5.1
			c-1.5-6.9-2.7-15.5-2.7-25.4c0-29.3,11.5-57.1,32.4-78C96.1,102,125,90.2,156,90.2s59.9,11.8,81.2,33.2c20.9,21,32.4,48.7,32.4,78
			c0,9.9-1.2,18.5-2.7,25.4c-4.3-3.2-9.5-5.1-15.2-5.1h-1.4l0.8-8.5c0.2-2.4-0.6-4.8-2.4-6.5l-17.4-17.4c-3.2-3.2-8.3-3.2-11.5,0
			c-3.2,3.2-3.2,8.3,0,11.5l14.7,14.7l-5.8,63.9C222,285.3,200.9,300,156,300c-4.5,0-8.2,3.6-8.2,8.2s3.6,8.2,8.2,8.2
			c31.2,0,52.6-6.5,66.4-13.4c-2.2,2.9-5,5.3-8.2,7.1l-45.3,25.2c-8.1,4.5-17.8,4.5-25.9,0L97.8,310z M104.9,372.3
			c9.6-4,15.7-13.2,15.7-23.6v-7.4l14.5,8c6.5,3.6,13.7,5.4,20.9,5.4s14.3-1.8,20.9-5.4l14.5-8v7.4c0,10.3,6.2,19.6,15.7,23.6
			l8.6,3.6c-15.3,17.8-30.1,26.6-40.1,30.9c-11.1,4.8-18.7,5.2-19.5,5.2c-0.8,0-8.4-0.4-19.5-5.2c-10-4.3-24.8-13.1-40.1-30.9
			L104.9,372.3z M52.2,482.6H25.5c-5.1,0-9.2-4.1-9.2-9.2v-52.2c0-2.2,0.4-4.4,1.2-6.4l28,22.4c4.3,3.4,6.7,8.5,6.7,14
			C52.2,451.2,52.2,482.6,52.2,482.6z M243.5,451.2v31.5h-175v-31.5c0-10.5-4.7-20.2-12.9-26.7l-25.9-20.7l50.9-21.2
			c26.9,33.2,54,42.4,67.2,44.9v27.6c0,4.5,3.6,8.2,8.2,8.2s8.2-3.6,8.2-8.2v-27.6c13.2-2.5,40.3-11.7,67.2-44.9l50.9,21.2
			l-25.9,20.7C248.2,431,243.5,440.7,243.5,451.2z M295.7,473.4c0,5.1-4.1,9.2-9.2,9.2h-26.6v-31.5c0-5.5,2.5-10.6,6.7-14l28-22.4
			c0.8,2,1.2,4.2,1.2,6.4L295.7,473.4L295.7,473.4z"/>
	</g>
</g>
<g>
	<g>
		<path class="st0" d="M145.9,243.8c-3.9-8.1-13.3-13.3-23.9-13.3s-20,5.2-23.9,13.3c-2,4.1-0.3,8.9,3.8,10.9
			c4.1,2,8.9,0.2,10.9-3.8c1-2,4.5-4.1,9.2-4.1s8.3,2.1,9.2,4.1c1.4,2.9,4.3,4.6,7.4,4.6c1.2,0,2.4-0.3,3.5-0.8
			C146.2,252.7,147.9,247.8,145.9,243.8z"/>
	</g>
</g>
<g>
	<g>
		<path class="st0" d="M213.9,243.8c-3.9-8.1-13.3-13.3-23.9-13.3s-20,5.2-23.9,13.3c-2,4.1-0.3,8.9,3.8,10.9
			c4.1,2,8.9,0.2,10.9-3.8c1-2,4.5-4.1,9.2-4.1s8.3,2.1,9.2,4.1c1.4,2.9,4.3,4.6,7.4,4.6c1.2,0,2.4-0.3,3.5-0.8
			C214.2,252.7,215.9,247.8,213.9,243.8z"/>
	</g>
</g>
<g>
	<g>
		<path class="st0" d="M408.2,13c-57.2,0-103.8,46.6-103.8,103.8c0,30,12.7,58,35.1,77.7c-11.2,18.4-23.5,29-23.6,29.1
			c-2.7,2.3-3.6,6.1-2.2,9.3c1.3,3.1,4.3,5,7.5,5c0.2,0,0.4,0,0.6,0c1.3-0.1,32-2.7,59.1-21c8.9,2.4,18,3.6,27.2,3.6
			c57.2,0,103.8-46.6,103.8-103.8C512,59.6,465.4,13,408.2,13z M408.2,204.4c-8.9,0-17.8-1.3-26.2-4c-2.5-0.8-5.2-0.3-7.2,1.2
			c-10,7.3-21.1,12.1-30.5,15.1c4.2-5.6,8.8-12.3,13-20c1.9-3.5,1-7.9-2.2-10.4c-21.8-16.8-34.3-42-34.3-69.4
			c0-48.3,39.3-87.5,87.5-87.5s87.5,39.3,87.5,87.5C495.7,165.1,456.4,204.4,408.2,204.4z"/>
	</g>
</g>
<g>
	<g>
		<path class="st0" d="M416.9,160.9h-0.5v-53.3h0.5c4.5,0,8.2-3.7,8.2-8.2s-3.6-8.2-8.2-8.2h-17.4c-4.5,0-8.2,3.7-8.2,8.2
			s3.6,8.2,8.2,8.2h0.5v53.3h-0.5c-4.5,0-8.2,3.6-8.2,8.2s3.6,8.2,8.2,8.2h17.4c4.5,0,8.2-3.6,8.2-8.2
			C425,164.5,421.4,160.9,416.9,160.9z"/>
	</g>
</g>
</svg>
