<?xml version="1.0" encoding="utf-8"?>
<!-- Generator: Adobe Illustrator 19.2.0, SVG Export Plug-In . SVG Version: 6.00 Build 0)  -->
<svg version="1.1" id="Layer_1" xmlns="http://www.w3.org/2000/svg" xmlns:xlink="http://www.w3.org/1999/xlink" x="0px" y="0px"
	 viewBox="0 0 512 512" style="enable-background:new 0 0 512 512;" xml:space="preserve">
<style type="text/css">
	.st0{fill:#0071BB;}
</style>
<g>
	<g>
		<path class="st0" d="M503.7,243.6c-5.3-6.3-12.6-10.5-20.9-12l-3.9-53.1c3.9,0,7.1-2.8,7.8-6.6l1.5-8.6c1.6-9.2-0.6-18.2-6.2-24.8
			c-5.5-6.6-13.7-10.2-22.8-10.2h-58.9l2.9-16.2c0.8-4.6-0.4-9.2-3.2-12.6c-2.8-3.4-7.1-5.3-11.7-5.3H98.5c-8.6,0-16.5,6.7-18,15.2
			L54.9,254.6c-0.8,4.4,2.1,8.5,6.5,9.3c0.5,0.1,0.9,0.1,1.4,0.1c3.8,0,7.2-2.7,7.9-6.6L96.4,112c0.2-1,1.4-1.9,2.2-1.9l288.7,0
			l-25.5,144.5c-0.8,4.4,2.1,8.5,6.5,9.3c4.4,0.8,8.5-2.1,9.3-6.5l1.8-10.5h95.9c0,0,0,0,0,0s0,0,0,0c6.6,0,12.4,2.5,16.1,7
			c2.6,3.1,4.1,6.9,4.5,11.2h-26.6c-3.9,0-7.2,2.8-7.9,6.6l-3,17.1c-1.2,6.9,0.5,13.7,4.7,18.7c4.1,4.9,10.4,7.8,17.3,7.8h7.5
			l-6.2,35.3h-21.2c-1.4-7.1-4.4-13.5-9.1-19c-8.2-9.8-20.3-15.2-34-15.2c-22,0-43.2,14.4-53.1,34.2h-3.2l10.4-59
			c0.8-4.4-2.1-8.5-6.5-9.3c-4.4-0.8-8.5,2.1-9.3,6.5l-10.9,61.8H196.4c-1.4-7.1-4.4-13.5-9.1-19c-8.2-9.8-20.3-15.2-34-15.2
			c-22,0-43.2,14.4-53.1,34.2l-46,0l3.2-18.2h36c4.4,0,8-3.6,8-8c0-4.4-3.6-8-8-8H8c-4.4,0-8,3.6-8,8c0,4.4,3.6,8,8,8h33.2
			l-2.9,16.2c-0.8,4.6,0.4,9.2,3.2,12.6c2.8,3.4,7.1,5.3,11.7,5.3h41.8c-2.2,13.6,1.1,26.4,9.3,36.2c8.2,9.8,20.3,15.2,34,15.2
			c27.3,0,53.4-22.2,58.2-49.4c0.1-0.6,0.2-1.3,0.3-1.9h162.3c-2.2,13.6,1.1,26.4,9.3,36.2c8.2,9.8,20.3,15.2,34,15.2
			c27.3,0,53.4-22.2,58.2-49.4c0.1-0.6,0.2-1.3,0.3-1.9h27.5c3.9,0,7.2-2.8,7.9-6.6l15.1-85.5C513.4,262.9,510.7,251.9,503.7,243.6z
			 M382.2,230.9l9.2-52.4h71.3l3.9,52.4H382.2z M472.4,160.5l-0.3,1.9h-77.8l3.2-18.2h61.7c4.4,0,8.1,1.6,10.6,4.5
			C472.2,151.8,473.2,156,472.4,160.5z M180.7,365.8c-3.5,19.9-22.5,36.1-42.4,36.1c-8.9,0-16.6-3.3-21.7-9.4
			c-5.2-6.3-7.2-14.7-5.6-23.9c3.5-19.9,22.5-36.1,42.4-36.1c8.9,0,16.6,3.3,21.7,9.4C180.3,348.1,182.3,356.6,180.7,365.8z
			 M444.8,365.8c-3.5,19.9-22.5,36.1-42.4,36.1c-8.9,0-16.6-3.3-21.7-9.4c-5.2-6.3-7.2-14.7-5.6-23.9c3.5-19.9,22.5-36.1,42.4-36.1
			c8.9,0,16.6,3.3,21.7,9.4C444.4,348.1,446.4,356.6,444.8,365.8z M490.7,299.3h-10.4v0c-2.1,0-3.9-0.7-5-2.1
			c-1.2-1.4-1.6-3.4-1.2-5.6l1.8-10.5h17.9L490.7,299.3z"/>
	</g>
</g>
<g>
	<g>
		<path class="st0" d="M159.1,355.9c-2.8-3.4-7.1-5.3-11.7-5.3c-8.6,0-16.5,6.7-18,15.2c-0.8,4.6,0.4,9.2,3.2,12.6
			c2.8,3.4,7.1,5.3,11.7,5.3c8.6,0,16.5-6.7,18-15.2C163.1,363.9,161.9,359.3,159.1,355.9z"/>
	</g>
</g>
<g>
	<g>
		<path class="st0" d="M423.1,355.9c-2.8-3.4-7.1-5.3-11.7-5.3c-8.6,0-16.5,6.7-18,15.2c-0.8,4.6,0.4,9.2,3.2,12.6
			c2.8,3.4,7.1,5.3,11.7,5.3c8.6,0,16.5-6.7,18-15.2C427.2,363.9,426,359.3,423.1,355.9z"/>
	</g>
</g>
<g>
	<g>
		<path class="st0" d="M323.4,316.4H221.8c-4.4,0-8,3.6-8,8c0,4.4,3.6,8,8,8h101.6c4.4,0,8-3.6,8-8
			C331.4,320,327.8,316.4,323.4,316.4z"/>
	</g>
</g>
<g>
	<g>
		<path class="st0" d="M179,282.2H31.1c-4.4,0-8,3.6-8,8c0,4.4,3.6,8,8,8H179c4.4,0,8-3.6,8-8C187.1,285.8,183.5,282.2,179,282.2z"
			/>
	</g>
</g>
<g>
	<g>
		<path class="st0" d="M332.1,249.9l-29.7-25.7c-3.4-2.9-8.4-2.5-11.3,0.8c-2.9,3.4-2.5,8.4,0.8,11.3l13.4,11.6H102.1
			c-4.4,0-8,3.6-8,8c0,4.4,3.6,8,8,8h198.2l-16.5,11c-3.7,2.4-4.7,7.4-2.3,11.1c1.5,2.3,4.1,3.6,6.7,3.6c1.5,0,3.1-0.4,4.4-1.3
			l38.7-25.7c2.1-1.4,3.4-3.7,3.6-6.2C335,254,334,251.6,332.1,249.9z"/>
	</g>
</g>
</svg>
