<?xml version="1.0" encoding="utf-8"?>
<!-- Generator: Adobe Illustrator 19.2.0, SVG Export Plug-In . SVG Version: 6.00 Build 0)  -->
<svg version="1.1"
	 id="Слой_1" image-rendering="optimizeQuality" text-rendering="geometricPrecision" shape-rendering="geometricPrecision"
	 xmlns="http://www.w3.org/2000/svg" xmlns:xlink="http://www.w3.org/1999/xlink" x="0px" y="0px" viewBox="0 0 247.1 76.1"
	 style="enable-background:new 0 0 247.1 76.1;" xml:space="preserve">
<style type="text/css">
	.st0{fill:#FFFFFF;}
	.st1{font-family:'Gilroy-ExtraBold';}
	.st2{font-size:22.2419px;}
</style>
<g>
	<g>
		<path class="st0" d="M135,2h5.8v21.9H135V21h-10.5l5.9-5.4h4.6V9.8l-16.2,14.6v-7.7L135,2z M108.4,7.3h-6.1l5.9-5.3h13.2l-5.8,5.3
			h-1.2v16.6h-5.9V7.3z M89.4,2v16.6H92c1.6,0,3.1-1.2,3.1-3.1c0-1.8-1.5-3.1-3.1-3.1h-1.2V7.3h1.8c3.5,0,8.3,2.7,8.3,8.3
			s-4.8,8.3-8.3,8.3h-9V7.3L89.4,2z M80.4,23.9h-5.8V9.8L58.4,24.4v-7.7L74.6,2h5.8V23.9z M50,2h5.8v21.9H50V21H39.5l5.9-5.4H50V9.8
			L33.8,24.4v-7.7L50,2z"/>
		<path class="st0" d="M226.7,29.4v16.5h2.6c1.6,0,3-1.2,3-3c0-1.8-1.5-3-3-3H228v-5.2h1.8c3.5,0,8.2,2.7,8.2,8.2
			c0,5.5-4.7,8.2-8.2,8.2h-8.9V34.6L226.7,29.4z M218.3,51.1h-5.7v-14l-16,14.4v-7.7l16-14.5h5.7V51.1z M174.1,34.1l5.8-5.2v9.5
			l10-9.1h5v21.7H189V38l-14.9,13.4V34.1z M153.2,29.4v5.2c-2.6,0.4-4.5,2.6-4.5,5.6s2.7,5.6,5.7,5.6V29.4h6.4
			c5.8,0,10.9,5.1,10.9,10.9c0,5.8-4.5,10.8-10.3,10.8v-5.2c2.6-0.5,4.5-2.7,4.5-5.6c0-3-2.6-5.6-5.7-5.6v16.5h-6.4
			c-5.7,0-10.9-5.1-10.9-10.9C142.9,34.4,147.4,29.4,153.2,29.4z M134.7,40.2c0-3.1-1.3-5.9-4.7-5.9c-3.4,0-4.6,2.7-4.6,5.9
			c0,3.2,1.3,5.9,4.6,5.9C133.4,46.1,134.7,43.4,134.7,40.2z M130.1,29.1c5.9,0,10.5,4,10.5,11.1c0,7.1-4.6,11.1-10.5,11.1
			c-5.8,0-10.4-4-10.4-11.1C119.7,33.1,124.2,29.1,130.1,29.1z M117.6,37.6c0,5.5-4.7,8.2-8.2,8.2h-1.2v-5.2h1.2c1.6,0,3-1.2,3-3
			c0-1.8-1.5-3-3-3h-2.6v16.5h-5.7V34.6l5.7-5.2h2.6C112.9,29.4,117.6,32.1,117.6,37.6z M85.6,29.4h13.1v21.7H93V34.6h-7.3v16.5
			h-5.8V34.6L85.6,29.4z"/>
		<path class="st0" d="M76.6,56.6l-27,16h39.5l27-16H76.6z"/>
		<path class="st0" d="M49.6,56.6V71l25.9-15.3V30.1L49.6,45.4V56.6z"/>
		<path class="st0" d="M75.5,28.5H36l-27,16h39.5L75.5,28.5z"/>
	</g>
	<text transform="matrix(1 0 0 1 147.8232 73.2344)" class="st0 st1 st2">ИЖЕВСК</text>
</g>
</svg>
