<?xml version="1.0" encoding="utf-8"?>
<!-- Generator: Adobe Illustrator 19.2.0, SVG Export Plug-In . SVG Version: 6.00 Build 0)  -->
<svg version="1.1"
	 id="Слой_1" image-rendering="optimizeQuality" text-rendering="geometricPrecision" shape-rendering="geometricPrecision"
	 xmlns="http://www.w3.org/2000/svg" xmlns:xlink="http://www.w3.org/1999/xlink" x="0px" y="0px" viewBox="0 0 247.1 76.1"
	 style="enable-background:new 0 0 247.1 76.1;" xml:space="preserve">
<style type="text/css">
	.st0{fill:url(#SVGID_1_);}
	.st1{fill:url(#SVGID_2_);}
	.st2{fill:url(#SVGID_3_);}
	.st3{fill:url(#SVGID_4_);}
	.st4{fill:url(#SVGID_5_);}
</style>
<g>
	<g>
		
			<linearGradient id="SVGID_1_" gradientUnits="userSpaceOnUse" x1="5213.623" y1="-2336.1704" x2="5726.9067" y2="-3751.5217" gradientTransform="matrix(3.827396e-002 0 0 -3.827396e-002 -120.2157 -103.7605)">
			<stop  offset="0" style="stop-color:#DE1F24"/>
			<stop  offset="1" style="stop-color:#B72221"/>
		</linearGradient>
		<path class="st0" d="M136.9,1.5h5.8v21.9h-5.8v-2.9h-10.5l5.9-5.4h4.6V9.3l-16.3,14.6v-7.7L136.9,1.5z M110.2,6.8h-6.1l5.9-5.3
			h13.2l-5.8,5.3h-1.2v16.6h-5.9V6.8z M91.3,1.5v16.6h2.6c1.6,0,3.1-1.2,3.1-3.1c0-1.8-1.5-3.1-3.1-3.1h-1.2V6.8h1.8
			c3.5,0,8.3,2.7,8.3,8.3s-4.8,8.3-8.3,8.3h-9V6.8L91.3,1.5z M82.3,23.5h-5.8V9.3L60.2,23.9v-7.7L76.5,1.5h5.8V23.5z M51.8,1.5h5.8
			v21.9h-5.8v-2.9H41.4l5.9-5.4h4.6V9.3L35.6,23.9v-7.7L51.8,1.5z"/>
		
			<linearGradient id="SVGID_2_" gradientUnits="userSpaceOnUse" x1="7117.5254" y1="-2999.8303" x2="7492.7988" y2="-4518.686" gradientTransform="matrix(3.827396e-002 0 0 -3.827396e-002 -120.2157 -103.7605)">
			<stop  offset="0" style="stop-color:#0060AA"/>
			<stop  offset="0.522" style="stop-color:#264796"/>
			<stop  offset="1" style="stop-color:#0C54A0"/>
		</linearGradient>
		<path class="st1" d="M228.6,28.9v16.5h2.6c1.6,0,3-1.2,3-3s-1.5-3-3-3h-1.2v-5.2h1.8c3.5,0,8.2,2.7,8.2,8.2c0,5.5-4.7,8.2-8.2,8.2
			h-8.9V34.1L228.6,28.9z M220.2,50.6h-5.7v-14l-16,14.4v-7.7l16-14.5h5.7V50.6z M176,33.7l5.8-5.2V38l10-9.1h5v21.7h-5.8V37.5
			L176,51V33.7z M155,28.9v5.2c-2.6,0.4-4.5,2.6-4.5,5.6s2.7,5.6,5.7,5.6V28.9h6.4c5.8,0,10.9,5.1,10.9,10.9
			c0,5.8-4.5,10.8-10.3,10.8v-5.2c2.6-0.5,4.5-2.7,4.5-5.6c0-3-2.6-5.6-5.7-5.6v16.5h-6.4c-5.7,0-10.9-5.1-10.9-10.9
			C144.8,33.9,149.2,28.9,155,28.9z M136.6,39.7c0-3.1-1.3-5.9-4.7-5.9s-4.6,2.7-4.6,5.9c0,3.2,1.3,5.9,4.6,5.9
			S136.6,42.9,136.6,39.7z M131.9,28.6c5.9,0,10.5,4,10.5,11.1c0,7.1-4.6,11.1-10.5,11.1c-5.8,0-10.4-4-10.4-11.1
			C121.5,32.7,126.1,28.6,131.9,28.6z M119.5,37.1c0,5.5-4.7,8.2-8.2,8.2H110v-5.2h1.2c1.6,0,3-1.2,3-3c0-1.8-1.5-3-3-3h-2.6v16.5
			h-5.7V34.1l5.7-5.2h2.6C114.8,28.9,119.5,31.6,119.5,37.1z M87.5,28.9h13.1v21.7h-5.8V34.1h-7.3v16.5h-5.8V34.1L87.5,28.9z"/>
		
			<linearGradient id="SVGID_3_" gradientUnits="userSpaceOnUse" x1="5311.3521" y1="-4068.8645" x2="5399.2017" y2="-4702.2358" gradientTransform="matrix(3.827396e-002 0 0 -3.827396e-002 -120.2157 -103.7605)">
			<stop  offset="0" style="stop-color:#DE1F24"/>
			<stop  offset="1" style="stop-color:#B72221"/>
		</linearGradient>
		<path class="st2" d="M78.5,56.1l-27,16H91l27-16H78.5z"/>
		
			<linearGradient id="SVGID_4_" gradientUnits="userSpaceOnUse" x1="4466.4775" y1="-3888.7417" x2="5181.6909" y2="-4149.5376" gradientTransform="matrix(3.827396e-002 0 0 -3.827396e-002 -120.2157 -103.7605)">
			<stop  offset="0" style="stop-color:#0060AA"/>
			<stop  offset="1" style="stop-color:#264796"/>
		</linearGradient>
		<path class="st3" d="M51.5,56.1v14.4l25.9-15.3V29.6L51.5,44.9V56.1z"/>
		
			<linearGradient id="SVGID_5_" gradientUnits="userSpaceOnUse" x1="4248.8286" y1="-3336.4819" x2="4336.6572" y2="-3969.8005" gradientTransform="matrix(3.827396e-002 0 0 -3.827396e-002 -120.2157 -103.7605)">
			<stop  offset="0" style="stop-color:#BDBFC1"/>
			<stop  offset="0.349" style="stop-color:#D4D5D6"/>
			<stop  offset="1" style="stop-color:#EBECEC"/>
		</linearGradient>
		<path class="st4" d="M77.4,28.1H37.8l-27,16h39.5L77.4,28.1z"/>
	</g>
	<g>
		<path d="M159.7,64.3l-6,8.5H151V57.2h3.6v8.5l6-8.5h2.7v15.6h-3.6V64.3z"/>
		<path d="M181,72.8l-4.3-6.9v6.9h-3.6v-6.9l-4.3,6.9h-3.9l5-7.9l-4.8-7.7h3.9l4.1,6.9v-6.9h3.6v6.9l4.1-6.9h3.9l-4.8,7.7l5,7.9H181
			z"/>
		<path d="M196.3,69.4v3.4h-9.8V57.2h9.7v3.4H190v2.6h5.6v3.4H190v2.8H196.3z"/>
		<path d="M209.8,68.2c0,2.8-2.2,4.6-5,4.6h-6.5V57.2h6.1c2.7,0,4.9,1.8,4.9,4.5c0,1.3-0.5,2.3-1.4,3
			C209.1,65.4,209.8,66.6,209.8,68.2z M201.8,60.5v2.8h2.5c0.8,0,1.4-0.6,1.4-1.4c0-0.8-0.5-1.4-1.4-1.4H201.8z M206.3,68
			c0-0.9-0.6-1.5-1.5-1.5h-3v3h3C205.7,69.5,206.3,68.8,206.3,68z"/>
		<path d="M210.9,65c0-4.6,3.4-8.1,8.1-8.1c2.8,0,5.3,1.4,6.7,3.6l-3.1,1.8c-0.7-1.2-2-1.9-3.6-1.9c-2.8,0-4.5,1.8-4.5,4.6
			c0,2.8,1.8,4.6,4.5,4.6c1.6,0,2.9-0.7,3.6-1.9l3.1,1.8c-1.3,2.2-3.8,3.6-6.7,3.6C214.3,73.1,210.9,69.6,210.9,65z"/>
		<path d="M235.9,72.8l-5-7.2v7.2h-3.6V57.2h3.6V64l4.8-6.8h4.1l-5.3,7.6l5.5,8H235.9z"/>
	</g>
</g>
</svg>
