<?xml version="1.0" encoding="utf-8"?>
<!-- Generator: Adobe Illustrator 19.2.0, SVG Export Plug-In . SVG Version: 6.00 Build 0)  -->
<svg version="1.1" id="Слой_1" xmlns="http://www.w3.org/2000/svg" xmlns:xlink="http://www.w3.org/1999/xlink" x="0px" y="0px"
	 viewBox="0 0 500 300" style="enable-background:new 0 0 500 300;" xml:space="preserve">
<style type="text/css">
	.st0{fill:#0071BB;}
</style>
<g>
	<path class="st0" d="M322.2,45.4h-32.1c-1.7-5.2-6.6-8.9-12.4-8.9h-9.1c-4.1-5.5-10.6-8.9-17.6-8.9c-6.9,0-13.4,3.4-17.6,8.9h-9.1
		c-5.7,0-10.6,3.7-12.4,8.9h-32.1c-9.7,0-17.5,7.9-17.5,17.5v186.8c0,9.7,7.9,17.5,17.5,17.5h88.9c2.3,0,4.2-1.9,4.2-4.2
		s-1.9-4.2-4.2-4.2h-88.9c-5.1,0-9.2-4.1-9.2-9.2V63c0-5.1,4.1-9.2,9.2-9.2h31.4v13.6c0,2.3,1.9,4.2,4.2,4.2h71.2
		c2.3,0,4.2-1.9,4.2-4.2V53.8h31.4c5.1,0,9.2,4.1,9.2,9.2V183c0,2.3,1.9,4.2,4.2,4.2c2.3,0,4.2-1.9,4.2-4.2V63
		C339.7,53.3,331.8,45.4,322.2,45.4L322.2,45.4z M282.4,63.2h-62.8V49.6c0,0,0,0,0,0c0,0,0,0,0,0c0-2.6,2.1-4.7,4.7-4.7h11.4
		c1.5,0,2.9-0.8,3.6-2.1c2.5-4.3,6.9-6.8,11.7-6.8c4.9,0,9.2,2.5,11.7,6.8c0.7,1.3,2.1,2.1,3.6,2.1h11.4c2.6,0,4.7,2.1,4.7,4.7
		c0,0,0,0,0,0c0,0,0,0,0,0V63.2z M282.4,63.2"/>
	<path class="st0" d="M268.8,241.1h-80.3V71.6h9.2c2.3,0,4.2-1.9,4.2-4.2c0-2.3-1.9-4.2-4.2-4.2h-13.3c-2.3,0-4.2,1.9-4.2,4.2v177.9
		c0,2.3,1.9,4.2,4.2,4.2h84.5c2.3,0,4.2-1.9,4.2-4.2C273,243,271.1,241.1,268.8,241.1L268.8,241.1z M268.8,241.1"/>
	<path class="st0" d="M317.7,63.2h-13.3c-2.3,0-4.2,1.9-4.2,4.2c0,2.3,1.9,4.2,4.2,4.2h9.2V183c0,2.3,1.9,4.2,4.2,4.2
		c2.3,0,4.2-1.9,4.2-4.2V67.4C321.9,65.1,320,63.2,317.7,63.2L317.7,63.2z M317.7,63.2"/>
	<path class="st0" d="M291,116.6h-44.5c-2.3,0-4.2,1.9-4.2,4.2c0,2.3,1.9,4.2,4.2,4.2H291c2.3,0,4.2-1.9,4.2-4.2
		C295.2,118.5,293.3,116.6,291,116.6L291,116.6z M291,116.6"/>
	<path class="st0" d="M277.7,98.8h-31.1c-2.3,0-4.2,1.9-4.2,4.2c0,2.3,1.9,4.2,4.2,4.2h31.1c2.3,0,4.2-1.9,4.2-4.2
		C281.9,100.7,280,98.8,277.7,98.8L277.7,98.8z M277.7,98.8"/>
	<path class="st0" d="M352.5,260.9l-17.3-17.3v-27.9c0-2.3-1.9-4.2-4.2-4.2c-2.3,0-4.2,1.9-4.2,4.2v29.6c0,1.1,0.4,2.2,1.2,2.9
		l18.5,18.5c0.8,0.8,1.9,1.2,2.9,1.2c1.1,0,2.1-0.4,2.9-1.2C354.2,265.1,354.2,262.5,352.5,260.9L352.5,260.9z M352.5,260.9"/>
	<path class="st0" d="M331,196.6c-26.8,0-48.6,21.8-48.6,48.6c0,26.8,21.8,48.6,48.6,48.6c26.8,0,48.6-21.8,48.6-48.6
		C379.7,218.5,357.9,196.6,331,196.6L331,196.6z M331,285.6c-22.2,0-40.3-18.1-40.3-40.3c0-22.2,18.1-40.3,40.3-40.3
		c22.2,0,40.3,18.1,40.3,40.3C371.3,267.5,353.3,285.6,331,285.6L331,285.6z M331,285.6"/>
	<path class="st0" d="M229.7,112.7c-2-1.2-4.5-0.5-5.7,1.5c-0.8,1.5-2.4,2.4-4.1,2.4c-2.6,0-4.7-2.1-4.7-4.7c0-2.6,2.1-4.7,4.7-4.7
		c2.3,0,4.2-1.9,4.2-4.2c0-2.3-1.9-4.2-4.2-4.2c-7.2,0-13.1,5.9-13.1,13.1c0,7.2,5.9,13.1,13.1,13.1c4.6,0,9-2.5,11.3-6.5
		C232.3,116.4,231.7,113.9,229.7,112.7L229.7,112.7z M229.7,112.7"/>
	<path class="st0" d="M291,161.1h-44.5c-2.3,0-4.2,1.9-4.2,4.2s1.9,4.2,4.2,4.2H291c2.3,0,4.2-1.9,4.2-4.2S293.3,161.1,291,161.1
		L291,161.1z M291,161.1"/>
	<path class="st0" d="M277.7,143.3h-31.1c-2.3,0-4.2,1.9-4.2,4.2c0,2.3,1.9,4.2,4.2,4.2h31.1c2.3,0,4.2-1.9,4.2-4.2
		C281.9,145.1,280,143.3,277.7,143.3L277.7,143.3z M277.7,143.3"/>
	<path class="st0" d="M229.7,157.2c-2-1.2-4.5-0.5-5.7,1.5c-0.8,1.5-2.4,2.4-4.1,2.4c-2.6,0-4.7-2.1-4.7-4.7s2.1-4.7,4.7-4.7
		c2.3,0,4.2-1.9,4.2-4.2c0-2.3-1.9-4.2-4.2-4.2c-7.2,0-13.1,5.9-13.1,13.1c0,7.2,5.9,13.1,13.1,13.1c4.6,0,9-2.5,11.3-6.5
		C232.3,160.9,231.7,158.3,229.7,157.2L229.7,157.2z M229.7,157.2"/>
	<path class="st0" d="M277.7,205.5h-31.1c-2.3,0-4.2,1.9-4.2,4.2c0,2.3,1.9,4.2,4.2,4.2h31.1c2.3,0,4.2-1.9,4.2-4.2
		C281.9,207.4,280,205.5,277.7,205.5L277.7,205.5z M277.7,205.5"/>
	<path class="st0" d="M277.7,187.8h-31.1c-2.3,0-4.2,1.9-4.2,4.2c0,2.3,1.9,4.2,4.2,4.2h31.1c2.3,0,4.2-1.9,4.2-4.2
		C281.9,189.6,280,187.8,277.7,187.8L277.7,187.8z M277.7,187.8"/>
	<path class="st0" d="M229.7,201.7c-2-1.2-4.5-0.5-5.7,1.5c-0.8,1.5-2.4,2.4-4.1,2.4c-2.6,0-4.7-2.1-4.7-4.7s2.1-4.7,4.7-4.7
		c2.3,0,4.2-1.9,4.2-4.2c0-2.3-1.9-4.2-4.2-4.2c-7.2,0-13.1,5.9-13.1,13.1c0,7.2,5.9,13.1,13.1,13.1c4.6,0,9-2.5,11.3-6.5
		C232.3,205.4,231.7,202.8,229.7,201.7L229.7,201.7z M229.7,201.7"/>
	<path class="st0" d="M251,45.4L251,45.4c-2.3,0-4.2,1.9-4.2,4.2c0,2.3,1.9,4.2,4.2,4.2c2.3,0,4.2-1.9,4.2-4.2
		C255.2,47.3,253.3,45.4,251,45.4L251,45.4z M251,45.4"/>
</g>
</svg>
